<svg xmlns="http://www.w3.org/2000/svg" viewBox="0 0 1024 1024" preserveAspectRatio="xMidYMid meet">
  <rect width="1024" height="1024" fill="#570006"/>
  <g transform="translate(128 295) scale(0.78)" fill="#fafafa">
    <path d="M 699.15 732.03 Q 699.16 730.81 698.77 730.24 Q 637.37 640.86 576.64 552.48 A 0.42 0.41 28.0 0 0 575.88 552.71 L 575.88 812.61 A 1.24 1.24 0.0 0 1 574.64 813.85 L 455.27 813.85 A 0.64 0.63 0.0 0 1 454.63 813.22 L 454.63 196.30 A 0.90 0.89 -0.0 0 1 455.53 195.41 L 460.34 195.41 A 1.61 1.60 -18.2 0 1 461.63 196.06 Q 546.23 312.93 699.78 525.05 Q 700.51 526.06 701.31 526.24 Q 702.02 526.40 702.13 527.19 Q 702.17 527.43 702.83 528.36 Q 724.87 559.12 747.84 590.33 A 0.36 0.35 44.3 0 0 748.42 590.33 L 1034.45 195.96 A 1.34 1.34 0.0 0 1 1035.54 195.40 L 1040.49 195.40 A 0.80 0.80 0.0 0 1 1041.29 196.20 L 1041.29 813.40 A 0.46 0.45 0.0 0 1 1040.83 813.85 L 920.83 813.85 A 0.83 0.82 0.0 0 1 920.00 813.03 Q 920.24 707.13 920.46 553.76 Q 920.46 553.04 920.05 552.17 A 0.60 0.60 0.0 0 0 919.01 552.08 L 748.95 800.38 A 0.97 0.97 0.0 0 1 747.35 800.38 Q 730.28 775.74 701.00 733.48 C 700.63 732.94 700.29 732.70 699.74 732.67 A 0.63 0.63 0.0 0 1 699.15 732.03 Z"/>
    <path d="M 1422.83 797.53 A 0.33 0.32 -17.4 0 1 1422.56 798.04 L 1275.90 798.04 A 1.72 1.71 73.2 0 1 1274.47 797.27 L 1083.96 513.94 A 2.51 2.47 28.6 0 1 1083.54 512.56 L 1083.54 467.86 A 1.18 1.18 0.0 0 1 1084.72 466.68 Q 1118.55 466.69 1154.25 467.09 C 1160.76 467.16 1170.61 466.90 1177.53 465.33 C 1230.75 453.28 1257.14 391.73 1223.38 346.83 C 1211.48 331.00 1192.79 319.34 1173.28 316.42 Q 1166.07 315.35 1154.76 315.38 Q 1090.91 315.54 1084.01 315.37 A 0.48 0.48 0.0 0 1 1083.54 314.89 L 1083.54 196.15 A 0.57 0.57 0.0 0 1 1084.11 195.58 Q 1098.30 195.70 1150.00 195.41 C 1161.18 195.35 1176.16 195.79 1188.26 197.52 C 1255.38 207.15 1314.75 247.41 1344.50 308.70 C 1377.93 377.58 1366.07 463.04 1312.82 518.58 Q 1287.30 545.20 1252.58 558.26 A 0.35 0.35 0.0 0 0 1252.42 558.79 L 1422.83 797.53 Z"/>
  </g>
</svg>
